# xmcd
#
# Track frame offsets:
#	150
#	11045
#	20795
#	35445
#	45700
#	57870
#	67265
#	83310
#	94940
#	104375
#	114770
#	126370
#	137560
#	149745
#	157805
#	168170
#	180010
#	189745
#	199880
#	210585
#
# Disc length: 3056 seconds
#
# Revision: 0
# Processed by: cddbd v1.5.2PL0 Copyright (c) Steve Scherf et al.
# Submitted via: EZCDAudioConverter 2.1.4.1
#
DISCID=120bee14
DTITLE=Manoel Maurício - O melhor de
DYEAR=1900
DGENRE=Forró
TTITLE0=Fogo na roça
TTITLE1=Arrasta-pé em Paratibe
TTITLE2=Brasil caboclo
TTITLE3=Vai quem pode
TTITLE4=Lá na feira de Caruaru
TTITLE5=Bode preto no forró
TTITLE6=Alegria do sertão
TTITLE7=Respeite este fole
TTITLE8=Aquarela nordestina
TTITLE9=Forró do Zé menino
TTITLE10=Vaqueiro alegre
TTITLE11=Fortunato no forró
TTITLE12=Olha biu mané
TTITLE13=Arrasta-pé na fazenda
TTITLE14=Roça queimada
TTITLE15=Saudade do meu sertão
TTITLE16=Picadinho de 8 baixos
TTITLE17=A rainha do baile
TTITLE18=Saudade de Limoeiro
TTITLE19=Arrodeando a fogueira
EXTD=
EXTT0=
EXTT1=
EXTT2=
EXTT3=
EXTT4=
EXTT5=
EXTT6=
EXTT7=
EXTT8=
EXTT9=
EXTT10=
EXTT11=
EXTT12=
EXTT13=
EXTT14=
EXTT15=
EXTT16=
EXTT17=
EXTT18=
EXTT19=
PLAYORDER=
